<mxfile host="app.diagrams.net" modified="2021-08-05T02:01:01.068Z" agent="5.0 (Windows NT 6.1; Win64; x64) AppleWebKit/537.36 (KHTML, like Gecko) Chrome/92.0.4515.107 Safari/537.36" etag="yClf8CYKJnV7aiNDJFnA" version="14.9.4" type="github">
  <diagram id="_Q8vUImt9AqYhbclpXKm" name="第 1 页">
    <mxGraphModel dx="1102" dy="582" grid="1" gridSize="10" guides="1" tooltips="1" connect="1" arrows="1" fold="1" page="1" pageScale="1" pageWidth="827" pageHeight="1169" math="0" shadow="0">
      <root>
        <mxCell id="0" />
        <mxCell id="1" parent="0" />
        <mxCell id="Gqb1zVQJN7Qz75vq-emw-1" value="" style="endArrow=classic;html=1;fontSize=16;" edge="1" parent="1">
          <mxGeometry width="50" height="50" relative="1" as="geometry">
            <mxPoint x="160" y="199.5" as="sourcePoint" />
            <mxPoint x="1160" y="200" as="targetPoint" />
          </mxGeometry>
        </mxCell>
        <mxCell id="Gqb1zVQJN7Qz75vq-emw-2" value="" style="endArrow=classic;html=1;fontSize=16;" edge="1" parent="1">
          <mxGeometry width="50" height="50" relative="1" as="geometry">
            <mxPoint x="160" y="319.5" as="sourcePoint" />
            <mxPoint x="1162" y="320" as="targetPoint" />
          </mxGeometry>
        </mxCell>
        <mxCell id="Gqb1zVQJN7Qz75vq-emw-3" value="" style="endArrow=classic;html=1;fontSize=16;" edge="1" parent="1">
          <mxGeometry width="50" height="50" relative="1" as="geometry">
            <mxPoint x="160" y="439.5" as="sourcePoint" />
            <mxPoint x="1160" y="440" as="targetPoint" />
          </mxGeometry>
        </mxCell>
        <mxCell id="Gqb1zVQJN7Qz75vq-emw-4" value="事务 A" style="verticalLabelPosition=bottom;html=1;verticalAlign=top;align=center;strokeColor=none;fillColor=#00BEF2;shape=mxgraph.azure.user;fontSize=16;" vertex="1" parent="1">
          <mxGeometry x="90" y="170" width="47.5" height="50" as="geometry" />
        </mxCell>
        <mxCell id="Gqb1zVQJN7Qz75vq-emw-5" value="数据库" style="aspect=fixed;perimeter=ellipsePerimeter;html=1;align=center;shadow=0;dashed=0;spacingTop=3;image;image=img/lib/active_directory/database.svg;fontSize=16;" vertex="1" parent="1">
          <mxGeometry x="73.21000000000001" y="290" width="81.08" height="60" as="geometry" />
        </mxCell>
        <mxCell id="Gqb1zVQJN7Qz75vq-emw-6" value="事务 B" style="verticalLabelPosition=bottom;html=1;verticalAlign=top;align=center;strokeColor=#C73500;fillColor=#fa6800;shape=mxgraph.azure.user;fontColor=#000000;fontSize=16;" vertex="1" parent="1">
          <mxGeometry x="90" y="410" width="47.5" height="50" as="geometry" />
        </mxCell>
        <mxCell id="Gqb1zVQJN7Qz75vq-emw-7" value="启动事务" style="rounded=1;whiteSpace=wrap;html=1;fontSize=16;fillColor=#e1d5e7;strokeColor=#9673a6;" vertex="1" parent="1">
          <mxGeometry x="170" y="180" width="90" height="40" as="geometry" />
        </mxCell>
        <mxCell id="Gqb1zVQJN7Qz75vq-emw-8" value="get" style="rounded=0;orthogonalLoop=1;jettySize=auto;html=1;entryX=0.25;entryY=0;entryDx=0;entryDy=0;fontSize=16;exitX=0.062;exitY=1.125;exitDx=0;exitDy=0;exitPerimeter=0;" edge="1" parent="1" source="Gqb1zVQJN7Qz75vq-emw-9" target="Gqb1zVQJN7Qz75vq-emw-11">
          <mxGeometry relative="1" as="geometry" />
        </mxCell>
        <mxCell id="Gqb1zVQJN7Qz75vq-emw-9" value="读取余额大于 &lt;br&gt;100 万的数量" style="rounded=1;whiteSpace=wrap;html=1;fontSize=16;fillColor=#dae8fc;strokeColor=#6c8ebf;" vertex="1" parent="1">
          <mxGeometry x="290" y="180" width="130" height="40" as="geometry" />
        </mxCell>
        <mxCell id="Gqb1zVQJN7Qz75vq-emw-10" value="5条" style="edgeStyle=none;rounded=0;orthogonalLoop=1;jettySize=auto;html=1;entryX=1;entryY=1;entryDx=0;entryDy=0;fontSize=16;exitX=0.396;exitY=0.05;exitDx=0;exitDy=0;exitPerimeter=0;" edge="1" parent="1" source="Gqb1zVQJN7Qz75vq-emw-11" target="Gqb1zVQJN7Qz75vq-emw-9">
          <mxGeometry relative="1" as="geometry" />
        </mxCell>
        <mxCell id="Gqb1zVQJN7Qz75vq-emw-11" value="余额大于100 万的记录有 5 条" style="rounded=1;whiteSpace=wrap;html=1;fontSize=16;fillColor=#cdeb8b;strokeColor=#36393d;" vertex="1" parent="1">
          <mxGeometry x="285" y="300" width="225" height="40" as="geometry" />
        </mxCell>
        <mxCell id="Gqb1zVQJN7Qz75vq-emw-12" value="set" style="edgeStyle=none;rounded=0;orthogonalLoop=1;jettySize=auto;html=1;entryX=0.176;entryY=0.05;entryDx=0;entryDy=0;fontSize=16;exitX=0.077;exitY=1.1;exitDx=0;exitDy=0;exitPerimeter=0;entryPerimeter=0;" edge="1" parent="1" source="Gqb1zVQJN7Qz75vq-emw-13">
          <mxGeometry relative="1" as="geometry">
            <mxPoint x="586.81744" y="302" as="targetPoint" />
          </mxGeometry>
        </mxCell>
        <mxCell id="Gqb1zVQJN7Qz75vq-emw-13" value="插入一条余额大于 100 万的账户" style="rounded=1;whiteSpace=wrap;html=1;fontSize=16;fillColor=#ffe6cc;strokeColor=#d79b00;" vertex="1" parent="1">
          <mxGeometry x="540" y="180" width="140" height="40" as="geometry" />
        </mxCell>
        <mxCell id="Gqb1zVQJN7Qz75vq-emw-14" value="ok" style="edgeStyle=none;rounded=0;orthogonalLoop=1;jettySize=auto;html=1;entryX=1;entryY=1;entryDx=0;entryDy=0;fontSize=16;exitX=0.41;exitY=0.025;exitDx=0;exitDy=0;exitPerimeter=0;" edge="1" parent="1" target="Gqb1zVQJN7Qz75vq-emw-13">
          <mxGeometry relative="1" as="geometry">
            <mxPoint x="643.6653999999999" y="301" as="sourcePoint" />
          </mxGeometry>
        </mxCell>
        <mxCell id="Gqb1zVQJN7Qz75vq-emw-16" value="余额大于100 万的记录变为 6 条" style="rounded=1;whiteSpace=wrap;html=1;fontSize=16;fillColor=#ffff88;strokeColor=#36393d;" vertex="1" parent="1">
          <mxGeometry x="571.1199999999999" y="300" width="242.94" height="40" as="geometry" />
        </mxCell>
        <mxCell id="Gqb1zVQJN7Qz75vq-emw-17" value="启动事务" style="rounded=1;whiteSpace=wrap;html=1;fontSize=16;fillColor=#e1d5e7;strokeColor=#9673a6;" vertex="1" parent="1">
          <mxGeometry x="170" y="420" width="90" height="40" as="geometry" />
        </mxCell>
        <mxCell id="Gqb1zVQJN7Qz75vq-emw-23" value="5条" style="edgeStyle=none;rounded=0;orthogonalLoop=1;jettySize=auto;html=1;entryX=0.669;entryY=-0.025;entryDx=0;entryDy=0;fontSize=16;entryPerimeter=0;fontColor=#FF0000;fontStyle=1" edge="1" parent="1" target="Gqb1zVQJN7Qz75vq-emw-25">
          <mxGeometry relative="1" as="geometry">
            <mxPoint x="477.05999999999995" y="340" as="sourcePoint" />
            <mxPoint x="460" y="420" as="targetPoint" />
          </mxGeometry>
        </mxCell>
        <mxCell id="Gqb1zVQJN7Qz75vq-emw-24" value="get" style="edgeStyle=none;rounded=0;orthogonalLoop=1;jettySize=auto;html=1;entryX=0.5;entryY=1;entryDx=0;entryDy=0;fontSize=16;exitX=0.346;exitY=0;exitDx=0;exitDy=0;exitPerimeter=0;" edge="1" parent="1" source="Gqb1zVQJN7Qz75vq-emw-25">
          <mxGeometry relative="1" as="geometry">
            <mxPoint x="375" y="340" as="targetPoint" />
          </mxGeometry>
        </mxCell>
        <mxCell id="Gqb1zVQJN7Qz75vq-emw-25" value="读取余额大于&lt;br&gt;100 万的数量" style="rounded=1;whiteSpace=wrap;html=1;fontSize=16;fillColor=#dae8fc;strokeColor=#6c8ebf;" vertex="1" parent="1">
          <mxGeometry x="360" y="420" width="130" height="40" as="geometry" />
        </mxCell>
        <mxCell id="Gqb1zVQJN7Qz75vq-emw-26" value="7条" style="edgeStyle=none;rounded=0;orthogonalLoop=1;jettySize=auto;html=1;entryX=0.5;entryY=0;entryDx=0;entryDy=0;fontSize=16;fontColor=#FF0000;fontStyle=1" edge="1" parent="1" target="Gqb1zVQJN7Qz75vq-emw-28">
          <mxGeometry relative="1" as="geometry">
            <mxPoint x="1110" y="340" as="sourcePoint" />
            <mxPoint x="1092.94" y="420" as="targetPoint" />
          </mxGeometry>
        </mxCell>
        <mxCell id="Gqb1zVQJN7Qz75vq-emw-27" value="get" style="edgeStyle=none;rounded=0;orthogonalLoop=1;jettySize=auto;html=1;entryX=0.556;entryY=1;entryDx=0;entryDy=0;fontSize=16;entryPerimeter=0;exitX=0.25;exitY=0;exitDx=0;exitDy=0;" edge="1" parent="1" source="Gqb1zVQJN7Qz75vq-emw-28" target="Gqb1zVQJN7Qz75vq-emw-32">
          <mxGeometry relative="1" as="geometry">
            <mxPoint x="1007.94" y="340" as="targetPoint" />
            <mxPoint x="1070" y="420" as="sourcePoint" />
          </mxGeometry>
        </mxCell>
        <mxCell id="Gqb1zVQJN7Qz75vq-emw-28" value="读取余额大于&lt;br&gt;100 万的数量" style="rounded=1;whiteSpace=wrap;html=1;fontSize=16;fillColor=#dae8fc;strokeColor=#6c8ebf;" vertex="1" parent="1">
          <mxGeometry x="1010" y="420" width="130" height="40" as="geometry" />
        </mxCell>
        <mxCell id="Gqb1zVQJN7Qz75vq-emw-29" value="get" style="rounded=0;orthogonalLoop=1;jettySize=auto;html=1;entryX=0.25;entryY=0;entryDx=0;entryDy=0;fontSize=16;exitX=0.062;exitY=1.125;exitDx=0;exitDy=0;exitPerimeter=0;" edge="1" parent="1" source="Gqb1zVQJN7Qz75vq-emw-30">
          <mxGeometry relative="1" as="geometry">
            <mxPoint x="771.25" y="298" as="targetPoint" />
          </mxGeometry>
        </mxCell>
        <mxCell id="Gqb1zVQJN7Qz75vq-emw-30" value="读取余额大于 &lt;br&gt;100 万的数量" style="rounded=1;whiteSpace=wrap;html=1;fontSize=16;fillColor=#dae8fc;strokeColor=#6c8ebf;" vertex="1" parent="1">
          <mxGeometry x="720" y="178" width="130" height="40" as="geometry" />
        </mxCell>
        <mxCell id="Gqb1zVQJN7Qz75vq-emw-31" value="6条" style="edgeStyle=none;rounded=0;orthogonalLoop=1;jettySize=auto;html=1;entryX=1;entryY=1;entryDx=0;entryDy=0;fontSize=16;exitX=0.396;exitY=0.05;exitDx=0;exitDy=0;exitPerimeter=0;" edge="1" parent="1" target="Gqb1zVQJN7Qz75vq-emw-30">
          <mxGeometry relative="1" as="geometry">
            <mxPoint x="804.0999999999999" y="300" as="sourcePoint" />
          </mxGeometry>
        </mxCell>
        <mxCell id="Gqb1zVQJN7Qz75vq-emw-32" value="余额大于100 万的记录变为 7 条" style="rounded=1;whiteSpace=wrap;html=1;fontSize=16;fillColor=#ffff88;strokeColor=#36393d;" vertex="1" parent="1">
          <mxGeometry x="879.9999999999999" y="300" width="242.94" height="40" as="geometry" />
        </mxCell>
        <mxCell id="Gqb1zVQJN7Qz75vq-emw-33" value="ok" style="edgeStyle=none;rounded=0;orthogonalLoop=1;jettySize=auto;html=1;entryX=0.669;entryY=-0.025;entryDx=0;entryDy=0;fontSize=16;entryPerimeter=0;" edge="1" parent="1" target="Gqb1zVQJN7Qz75vq-emw-35">
          <mxGeometry relative="1" as="geometry">
            <mxPoint x="977.06" y="340" as="sourcePoint" />
            <mxPoint x="960" y="420" as="targetPoint" />
          </mxGeometry>
        </mxCell>
        <mxCell id="Gqb1zVQJN7Qz75vq-emw-34" value="set" style="edgeStyle=none;rounded=0;orthogonalLoop=1;jettySize=auto;html=1;fontSize=16;exitX=0.454;exitY=0.025;exitDx=0;exitDy=0;exitPerimeter=0;entryX=0.062;entryY=0.975;entryDx=0;entryDy=0;entryPerimeter=0;" edge="1" parent="1" source="Gqb1zVQJN7Qz75vq-emw-35" target="Gqb1zVQJN7Qz75vq-emw-32">
          <mxGeometry relative="1" as="geometry">
            <mxPoint x="900" y="350" as="targetPoint" />
          </mxGeometry>
        </mxCell>
        <mxCell id="Gqb1zVQJN7Qz75vq-emw-35" value="插入一条余额大于 100 万的账户" style="rounded=1;whiteSpace=wrap;html=1;fontSize=16;fillColor=#ffe6cc;strokeColor=#d79b00;" vertex="1" parent="1">
          <mxGeometry x="860" y="420" width="130" height="40" as="geometry" />
        </mxCell>
        <mxCell id="Gqb1zVQJN7Qz75vq-emw-36" value="幻觉？？？" style="text;html=1;align=center;verticalAlign=middle;resizable=0;points=[];autosize=1;strokeColor=#b85450;fontSize=16;fillColor=#f8cecc;" vertex="1" parent="1">
          <mxGeometry x="1120" y="370" width="100" height="20" as="geometry" />
        </mxCell>
      </root>
    </mxGraphModel>
  </diagram>
</mxfile>
